# xmcd
#
# Track frame offsets:
#	150
#	9915
#	21597
#	47062
#	61137
#	72105
#	91667
#	106800
#	124822
#	134920
#	147442
#
# Disc length: 2244 seconds
#
# Revision: 0
# Processed by: cddbd v1.5.1PL0 Copyright (c) Steve Scherf et al.
# Submitted via: dBpowerAMP V4.0
#
DISCID=9708c20b
DTITLE=Ciro Fogliatta - West End Blues
DYEAR=1900
DGENRE=Blues
TTITLE0=Roll ´em pete
TTITLE1=Nickel Plated
TTITLE2=My home is a prision
TTITLE3=Do your duty
TTITLE4=Still got the blues
TTITLE5=In the evening
TTITLE6=West end blues
TTITLE7=Highway 51 blues
TTITLE8=Outside of that
TTITLE9=Willie Mae
TTITLE10=Cypress Grove
EXTD=
EXTT0=
EXTT1=
EXTT2=
EXTT3=
EXTT4=
EXTT5=
EXTT6=
EXTT7=
EXTT8=
EXTT9=
EXTT10=
PLAYORDER=
